<svg xmlns="http://www.w3.org/2000/svg" viewBox="0 0 128 128"><path d="M79.35,79a5.81,5.81,0,0,0,0,8.63l7.22,6.51,2.29,2.06a5.81,5.81,0,0,0,9.71-4.32V74.79a5.81,5.81,0,0,0-9.71-4.32l-2.29,2.06Z"/><path d="M96.13,30.25H31.87A5.87,5.87,0,0,0,26,36.12V80.38a5.87,5.87,0,0,0,5.87,5.87H96.13A5.87,5.87,0,0,0,102,80.38V36.12A5.87,5.87,0,0,0,96.13,30.25ZM88,68.25a4,4,0,0,1-4,4H44a4,4,0,0,1-4-4h0a4,4,0,0,1,4-4H84a4,4,0,0,1,4,4Zm0-20a4,4,0,0,1-4,4H44a4,4,0,0,1-4-4h0a4,4,0,0,1,4-4H84a4,4,0,0,1,4,4Z"/></svg>